<svg width="25" height="24" viewBox="0 0 25 24" fill="none" xmlns="http://www.w3.org/2000/svg">
<path d="M16.683 2H8.61302C7.03617 2.00185 5.52445 2.62914 4.40954 3.74424C3.29464 4.85933 2.6676 6.37115 2.66602 7.948L2.66602 16.018C2.66787 17.5948 3.29516 19.1066 4.41025 20.2215C5.52535 21.3364 7.03717 21.9634 8.61402 21.965H16.684C18.2609 21.9631 19.7726 21.3359 20.8875 20.2208C22.0024 19.1057 22.6294 17.5938 22.631 16.017V7.947C22.6292 6.37015 22.0019 4.85844 20.8868 3.74353C19.7717 2.62862 18.2599 2.00159 16.683 2V2ZM20.623 16.017C20.623 16.5344 20.5211 17.0468 20.3231 17.5248C20.1251 18.0028 19.8349 18.4371 19.469 18.803C19.1032 19.1689 18.6688 19.4591 18.1908 19.6571C17.7128 19.8551 17.2004 19.957 16.683 19.957H8.61302C7.56824 19.9567 6.56634 19.5415 5.82766 18.8026C5.08898 18.0638 4.67402 17.0618 4.67402 16.017V7.947C4.67428 6.90222 5.0895 5.90032 5.82837 5.16165C6.56723 4.42297 7.56924 4.008 8.61402 4.008H16.684C17.7288 4.00827 18.7307 4.42349 19.4694 5.16235C20.208 5.90122 20.623 6.90322 20.623 7.948V16.018V16.017Z" fill="#E2E8F0"/>
<path d="M12.6483 6.81885C11.2798 6.82096 9.96786 7.36563 9.00023 8.33345C8.03259 9.30127 7.48818 10.6133 7.48633 11.9818C7.48792 13.3508 8.03235 14.6632 9.00023 15.6312C9.96811 16.5993 11.2804 17.144 12.6493 17.1458C14.0184 17.1443 15.331 16.5997 16.2991 15.6316C17.2672 14.6635 17.8117 13.3509 17.8133 11.9818C17.8112 10.6129 17.2663 9.30073 16.298 8.33304C15.3298 7.36535 14.0172 6.82117 12.6483 6.81985V6.81885ZM12.6483 15.1378C11.8116 15.1378 11.0091 14.8054 10.4174 14.2138C9.82573 13.6221 9.49333 12.8196 9.49333 11.9828C9.49333 11.1461 9.82573 10.3436 10.4174 9.75193C11.0091 9.16025 11.8116 8.82785 12.6483 8.82785C13.4851 8.82785 14.2876 9.16025 14.8793 9.75193C15.4709 10.3436 15.8033 11.1461 15.8033 11.9828C15.8033 12.8196 15.4709 13.6221 14.8793 14.2138C14.2876 14.8054 13.4851 15.1378 12.6483 15.1378Z" fill="#E2E8F0"/>
<path d="M17.8229 8.09509C18.5061 8.09509 19.0599 7.54127 19.0599 6.85809C19.0599 6.17492 18.5061 5.62109 17.8229 5.62109C17.1398 5.62109 16.5859 6.17492 16.5859 6.85809C16.5859 7.54127 17.1398 8.09509 17.8229 8.09509Z" fill="#E2E8F0"/>
</svg>
