<svg width="25" height="24" viewBox="0 0 25 24" fill="none" xmlns="http://www.w3.org/2000/svg">
<path d="M22.625 13.7189V21.0979H18.347V14.2129C18.347 12.4829 17.728 11.3029 16.18 11.3029C14.998 11.3029 14.294 12.0989 13.985 12.8679C13.872 13.1429 13.843 13.5259 13.843 13.9109V21.0979H9.56302C9.56302 21.0979 9.62102 9.43788 9.56302 8.22888H13.843V10.0529L13.815 10.0949H13.843V10.0529C14.411 9.17788 15.426 7.92688 17.699 7.92688C20.514 7.92688 22.625 9.76688 22.625 13.7189ZM5.08702 2.02588C3.62402 2.02588 2.66602 2.98588 2.66602 4.24888C2.66602 5.48388 3.59602 6.47288 5.03102 6.47288H5.05902C6.55202 6.47288 7.47902 5.48388 7.47902 4.24888C7.45302 2.98588 6.55302 2.02588 5.08802 2.02588H5.08702ZM2.92002 21.0979H7.19802V8.22888H2.92002V21.0979Z" fill="#E2E8F0"/>
</svg>
