<svg width="25" height="24" viewBox="0 0 25 24" fill="none" xmlns="http://www.w3.org/2000/svg">
<path d="M22.666 5.90716C21.9164 6.23454 21.1225 6.4492 20.31 6.54416C21.1628 6.0434 21.8041 5.24927 22.114 4.31016C21.306 4.78049 20.4248 5.11177 19.507 5.29016C19.1206 4.88537 18.6557 4.56355 18.1408 4.34434C17.6258 4.12513 17.0717 4.01313 16.512 4.01516C14.246 4.01516 12.409 5.82516 12.409 8.05516C12.409 8.37116 12.445 8.68016 12.515 8.97516C10.8896 8.89786 9.29813 8.48257 7.84218 7.7558C6.38624 7.02903 5.09777 6.00674 4.05902 4.75416C3.69484 5.36857 3.50343 6.06994 3.50502 6.78416C3.50571 7.45213 3.67284 8.10939 3.99131 8.69656C4.30977 9.28372 4.76952 9.78228 5.32902 10.1472C4.6785 10.1262 4.04204 9.95249 3.47102 9.64016V9.69016C3.47102 11.6482 4.88602 13.2812 6.76102 13.6532C6.40863 13.7467 6.0456 13.7941 5.68102 13.7942C5.41602 13.7942 5.15902 13.7692 4.90802 13.7192C5.1761 14.5271 5.68912 15.2315 6.37583 15.7345C7.06255 16.2375 7.88886 16.5142 8.74002 16.5262C7.28008 17.6507 5.48784 18.2582 3.64502 18.2532C3.31302 18.2532 2.98702 18.2332 2.66602 18.1972C4.54727 19.3879 6.72861 20.0184 8.95502 20.0152C16.502 20.0152 20.628 13.8582 20.628 8.51916L20.614 7.99616C21.4189 7.42983 22.1142 6.72201 22.666 5.90716Z" fill="#E2E8F0"/>
</svg>
