<svg width="21" height="14" viewBox="0 0 21 14" fill="none" xmlns="http://www.w3.org/2000/svg">
<path d="M16.478 0.0171133H4.81102C2.52102 0.0171133 0.666016 1.85211 0.666016 4.11611V9.88411C0.666016 12.1481 2.52202 13.9841 4.81102 13.9841H16.478C18.768 13.9841 20.623 12.1481 20.623 9.88411V4.11611C20.623 1.85211 18.767 0.0161133 16.478 0.0161133V0.0171133ZM13.675 7.28011L8.21802 9.85511C8.18473 9.87114 8.14793 9.87848 8.11105 9.87647C8.07416 9.87445 8.03839 9.86313 8.00705 9.84357C7.97571 9.82401 7.94983 9.79684 7.93182 9.76459C7.9138 9.73234 7.90424 9.69605 7.90402 9.65911V4.35011C7.90468 4.31299 7.91474 4.27663 7.93324 4.24444C7.95174 4.21224 7.97809 4.18526 8.00984 4.16599C8.04158 4.14673 8.07768 4.13581 8.11478 4.13425C8.15188 4.1327 8.18877 4.14057 8.22202 4.15711L13.68 6.89211C13.7164 6.91024 13.7469 6.93826 13.768 6.97294C13.7892 7.00762 13.8001 7.04756 13.7996 7.08818C13.7991 7.1288 13.7871 7.16845 13.7651 7.20258C13.743 7.2367 13.7118 7.26392 13.675 7.28111V7.28011Z" fill="#E2E8F0"/>
</svg>
