<svg width="14" height="10" viewBox="0 0 14 10" fill="none" xmlns="http://www.w3.org/2000/svg">
<path d="M5.48526 9.73002C5.35399 9.73028 5.22396 9.70463 5.10264 9.65452C4.98131 9.60441 4.87108 9.53083 4.77826 9.43802L0.536255 5.19502C0.440682 5.10284 0.364424 4.99255 0.311931 4.87058C0.259437 4.74861 0.23176 4.61741 0.230513 4.48464C0.229266 4.35186 0.254475 4.22016 0.304669 4.09723C0.354863 3.9743 0.429037 3.8626 0.522862 3.76864C0.616687 3.67468 0.728286 3.60035 0.851145 3.54998C0.974005 3.49961 1.10566 3.47422 1.23844 3.47528C1.37122 3.47634 1.50246 3.50383 1.6245 3.55615C1.74654 3.60847 1.85694 3.68457 1.94926 3.78002L5.48426 7.31502L11.8493 0.952016C12.0368 0.764375 12.2911 0.658907 12.5564 0.658814C12.8217 0.65872 13.0761 0.764008 13.2638 0.951516C13.4514 1.13902 13.5569 1.39339 13.557 1.65866C13.5571 1.92393 13.4518 2.17838 13.2643 2.36602L6.19226 9.43802C6.09943 9.53083 5.9892 9.60441 5.86787 9.65452C5.74655 9.70463 5.61652 9.73028 5.48526 9.73002Z" fill="#15803D"/>
</svg>
